<mxfile host="app.diagrams.net" modified="2023-08-15T15:34:32.593Z" agent="Mozilla/5.0 (Macintosh; Intel Mac OS X 10_15_7) AppleWebKit/537.36 (KHTML, like Gecko) Chrome/115.0.0.0 Safari/537.36" etag="Tts4ME4UeYUOg6GdBXqP" version="21.6.8" type="github">
  <diagram name="Page-1" id="S2XKrba_cc_Nq1T_Jke2">
    <mxGraphModel dx="1026" dy="655" grid="1" gridSize="10" guides="1" tooltips="1" connect="1" arrows="1" fold="1" page="1" pageScale="1" pageWidth="827" pageHeight="1169" math="0" shadow="0">
      <root>
        <mxCell id="0" />
        <mxCell id="1" parent="0" />
        <mxCell id="PqSHuzn6OhDRHvWEDTeR-1" value="Solana/Non-EVM" style="swimlane;whiteSpace=wrap;html=1;" vertex="1" parent="1">
          <mxGeometry x="300" y="140" width="200" height="200" as="geometry" />
        </mxCell>
        <mxCell id="PqSHuzn6OhDRHvWEDTeR-2" value="Neo Blockchain" style="swimlane;whiteSpace=wrap;html=1;startSize=23;" vertex="1" parent="1">
          <mxGeometry x="40" y="360" width="200" height="200" as="geometry" />
        </mxCell>
        <mxCell id="PqSHuzn6OhDRHvWEDTeR-3" value="Ethereum" style="swimlane;whiteSpace=wrap;html=1;" vertex="1" parent="1">
          <mxGeometry x="560" y="360" width="200" height="200" as="geometry" />
        </mxCell>
        <mxCell id="PqSHuzn6OhDRHvWEDTeR-4" value="" style="html=1;shadow=0;dashed=0;align=center;verticalAlign=middle;shape=mxgraph.arrows2.jumpInArrow;dy=15;dx=38;arrowHead=55;" vertex="1" parent="1">
          <mxGeometry x="180" y="250" width="100" height="100" as="geometry" />
        </mxCell>
        <mxCell id="PqSHuzn6OhDRHvWEDTeR-5" value="" style="html=1;shadow=0;dashed=0;align=center;verticalAlign=middle;shape=mxgraph.arrows2.jumpInArrow;dy=15;dx=38;arrowHead=55;direction=west;" vertex="1" parent="1">
          <mxGeometry x="260" y="360" width="100" height="100" as="geometry" />
        </mxCell>
        <mxCell id="PqSHuzn6OhDRHvWEDTeR-7" value="" style="html=1;shadow=0;dashed=0;align=center;verticalAlign=middle;shape=mxgraph.arrows2.twoWayArrow;dy=0.6;dx=35;" vertex="1" parent="1">
          <mxGeometry x="290" y="480" width="220" height="60" as="geometry" />
        </mxCell>
      </root>
    </mxGraphModel>
  </diagram>
</mxfile>
